<svg xmlns="http://www.w3.org/2000/svg" width="235" height="307">
    <path opacity=".2"
          d="M180.63 203.503c16.044 6.022 6.054-1.112 0 0zM67.743 251.73c0-26.152 3.629-37.364 16.837-48.284-13.28-15.06-23.523-34.323-25.54-55.41-.2-2.088-.255-4.11-.178-6.069.331-8.437 3.084-15.596 7.466-21.57l-2.44-2.182a687.422 687.422 0 01-16.116-14.9c-3.243-3.096-6.588-6.118-9.893-9.198C26.251 83.272 13.741 70.03 13.597 51.67c-.06-7.557 3.403-17.706 11.015-21.814 10.698-5.775 22.505 1.032 29.29 8.237 12.458 13.23 26.885 46.839 34.185 65.59 10.731-4.86 22.945-7.334 33.967-7.746a88.571 88.571 0 011.8-.047c-2.149-11.535-4.283-24.427-6.156-36.244-1.5-9.464-3.65-19.526-3.014-29.894.616-10.076 4.26-24.076 15.641-28.122 8.564-3.045 18.62 1.935 23.085 8.56 17.497 25.956 1.047 70.876-4.78 88.71 8.407 2.369 11.93 5.468 18.34 11.051 13.613 11.86 1.73 66.312-1.074 66.4 89.45 4.284 70.178 69.054 60.11 89.96-4.107 8.53-6.647 8.312-6.702 9.282H71.407a79.049 79.049 0 01-3.663-23.863z"/>
    <path
        d="M54.147 252.016c0-43.079 9.849-45.622 56.137-73.094-27.778 38.17 101.894-16.472 95.424 96.957H57.81a79.049 79.049 0 01-3.663-23.863z"
        fill="#efeeee"/>
    <path
        d="M195.36 266.668c0 2.813-.17 5.56-.49 8.21h-22.943c-2.406-21.642-11.644-48.55-.182-48.55 13.042 0 23.615 18.06 23.615 40.34z"
        fill="#fff"/>
    <path opacity=".502"
          d="M98.33 197.384l-14.604 25.375c-13.742 1.178-13.523 7.982-19.522 23.69-6.112 15.998-2.947 27.939 8.79 31.955 6.427 2.198 14.357 2.144 22.477.121 7.372-1.812 12.134 2.215 12.44 5.289.526 5.23-2.758 14.06-11.193 17.882-11.457 2.38-22.62 1.945-31.933-1.55-21.728-8.155-28.5-31.802-18.006-58.974 9.384-24.297 29.245-41.365 51.55-43.788z"
          fill="#464142"/>
    <path
        d="M85.703 307c-.462-1.434-.88-2.888-1.167-4.394-1.257-6.632-.381-12.518-.139-18.908 2.476-.173 4.992-.5 7.526-1.013 7.927-1.58 13.225 2.64 13.663 5.748.748 5.289-2.506 14.079-11.515 17.651a81.2 81.2 0 01-8.368.916z"
        fill="#ffdbdc"/>
    <path
        d="M94.379 200.96l-1.284 21.461c-14.857.72-28.065 11.226-34.03 26.868-6.077 15.93-2.232 28.078 10.635 32.522 1.892.654 3.906 1.132 5.996 1.472-2.945 6.509-3.163 15.066-1.531 23.266-4.424-.588-8.665-1.607-12.617-3.09-23.848-8.948-32.014-33.026-21.568-60.084 9.342-24.194 30.296-40.736 54.399-42.416z"
        fill="#efeeee"/>
    <path
        d="M220.436 256.207c-.664-1.342-1.374-2.669-2.216-3.942-3.71-5.608-8.446-9.214-13.078-13.62a58.564 58.564 0 01-6.138 4.473c-6.817 4.343-7.69 11.011-5.837 13.532 3.15 4.29 11.616 8.318 20.595 4.667a81.335 81.335 0 006.674-5.11z"
        fill="#ffdbdc"/>
    <path
        d="M140.735 194.914l21.945 17.611c0-9.995 13.554-16.187 28.846-9.052 15.557 7.257 21.261 18.674 15.049 30.789-.913 1.78-2.035 3.517-3.308 5.207 6.669 2.628 13.066 22.765 17.32 15.6 15.085-25.408 14.904-51.692-11.63-63.963-23.774-10.994-49.63-11.817-68.222 3.808z"
        fill="#efeeee"/>
    <path opacity=".251"
          d="M66.394 194.536c8.539-6.952 20.987-13.848 38.881-24.467-16.168 22.217 21.004 12.99 53.625 23.763-24.377 18.423-65.895 31.024-79.363 17.027-4.762-4.947-9.214-10.42-13.143-16.323z"
          fill="#464142"/>
    <g>
        <path
            d="M45.266 141.253a45.007 45.007 0 00.178 6.068c2.194 22.928 14.111 43.697 29.084 59.255 19.47 20.234 97.564-15.118 97.74-43.287.139-17.228-.587-41.279-14.2-53.138-7.72-6.726-18.07-11.173-28.206-13.213-6.845-1.377-14.28-1.981-21.405-1.715-27.317 1.022-61.959 14.699-63.19 46.03z"
            fill="#efeeee"/>
        <path
            d="M153.451 145.778c-20.937 23.876-73.837 34.89-97.91 9.006-4.887-5.254-11.926-18.308-9.786-25.198C50.4 114.65 76.593 104.18 94.22 102.83c11.62-.89 22.006 2.205 27.412 2.974 10.002 1.421 18.81 4.473 25.04 8.684 9.025 6.1 16.34 18.139 8.394 29.26a26.253 26.253 0 01-1.615 2.029z"
            fill="#efeeee"/>
        <path
            d="M11.015 29.142c10.699-5.775 22.506 1.032 29.29 8.237 17.345 18.42 38.506 76.34 38.938 78.67 1.172 6.34-7.727 12.486-14.42 12.164-2.831-.136-4.684-2.017-6.485-3.584a725.506 725.506 0 01-8.046-7.128 686.787 686.787 0 01-16.115-14.9c-3.243-3.096-6.588-6.118-9.893-9.198C12.655 82.558.145 69.317 0 50.956-.06 43.4 3.404 33.25 11.015 29.142z"
            fill="#fff"/>
        <path opacity=".259"
              d="M11.974 31.573a14.667 14.667 0 015.524-1.682c9.028-.876 17.568 6.434 20.798 9.6 1.762 1.727 3.386 3.605 4.925 5.561a38.76 38.76 0 00-2.656-1.528c-6.078-3.158-13.227 1.78-15.31 8.141-2.696 8.236 1.315 16.47 5.193 22.616 4.446 7.042 9 13.903 13.845 20.435 5.95 8.024 11.91 15.835 17.097 24.006.961 1.515 1.915 3.052 2.885 4.587a52.96 52.96 0 00-2.008 1.566c-9.513-8.277-18.12-16.108-26.278-23.913-2.083-1.993-4.209-3.955-6.34-5.922-1.203-1.11-2.407-2.222-3.606-3.341C14.746 81.142 2.538 68.313 2.463 50.743c-.029-6.91 3.195-15.791 9.511-19.17z"
              fill="#c2bebe"/>
        <path
            d="M10.353 42.686c-4.75 7.43-3.783 17.715-1.849 24.977.716 2.69 1.628 5.3 2.668 7.84-5.066-7.086-8.668-15.185-8.708-24.76-.03-6.91 3.194-15.791 9.51-19.17a14.667 14.667 0 015.524-1.682c3.27-.317 6.492.456 9.424 1.714-6.662 1.5-12.79 5.173-16.569 11.081z"
            fill="#fff"/>
        <g>
            <path
                d="M120.722 106.954c-2.056-.26-4.08-.785-5.958-1.627-1.752-.784-3.017-2.383-3.326-3.961-2.538-12.965-5.12-28.45-7.337-42.434-1.5-9.464-3.649-19.526-3.014-29.894.617-10.076 4.26-24.076 15.642-28.122 8.563-3.045 18.62 1.936 23.085 8.56 20.01 29.684-4.38 84.172-6.5 94.581-.779 3.828-9.035 3.35-12.592 2.897z"
                fill="#fff"/>
            <path opacity=".259"
                  d="M117.05 3.237c2.03-.699 4.254-.81 6.615-.327 4.381.898 9.066 3.893 12.193 7.812 9.477 11.873 9.769 27.288 8.237 41.478-1.253-8.216-4.398-16.21-11.59-21.318-4.99-3.546-13.543-3.367-16.002 2.807-5.922 14.868-2.757 31.342-1.388 46.273a439.354 439.354 0 002.618 22.457 89.857 89.857 0 00-3.32-.34c-2.71-13.857-5.567-28.869-7.93-44.637a475.42 475.42 0 00-.739-4.733c-1.267-7.964-2.591-16.286-2.036-24.602.318-4.798 2.225-21.046 13.342-24.87z"
                  fill="#c2bebe"/>
            <path
                d="M121.787 5.726a23.562 23.562 0 00-8.927-.175 14.091 14.091 0 014.19-2.314c2.03-.699 4.254-.81 6.615-.327 4.381.898 9.066 3.893 12.193 7.812a36.414 36.414 0 013.196 4.724c-4.98-4.69-10.794-8.319-17.267-9.72z"
                fill="#fff"/>
        </g>
        <g>
            <path
                d="M125.885 149.905c.32-.149.632-.299.94-.46 4.023-1.99 8.064-4.18 12.016-6.497.752-.438 1.48-.876 2.206-1.313 9.678-5.923 18.316-12.424 25.35-19.085a2.119 2.119 0 012.223-.435c.778.293 1.37.998 1.55 1.848v.002l1.8 8.594c1.553 7.316-.704 15.185-5.13 18.04l-11.364 7.334c-1.54.98-3.158 1.454-4.845 1.397-4.492-.173-8.485-4.207-10.142-10.33l-.448-1.63a175.636 175.636 0 01-12.779 7.057c-.047.01-.07.034-.106.045l1.193 4.266c2.173 7.68-.365 15.608-5.807 18.162l-13.934 6.548a11.122 11.122 0 01-4.818 1.087c-5.988 0-11.694-4.602-14.164-11.526l-1.797-5.065-.097-.274c-.43-1.204-.348-2.494.225-3.577.574-1.083 1.59-1.866 2.82-2.17 11.45-2.839 25.077-7.196 35.108-12.018zm15.185-3.156l.536 1.993c1.51 5.556 5.049 9.229 9.009 9.383 1.468.066 2.892-.364 4.252-1.219l11.38-7.326c4.092-2.63 6.123-9.96 4.677-16.812l-1.67-7.874v-.001c-.152-.716-.651-1.31-1.309-1.553a1.78 1.78 0 00-1.867.378c-7.082 6.789-15.942 13.423-25.984 19.404l.976 3.627zm-50.191 25.92c2.259 6.38 7.43 10.615 12.842 10.633 1.505.001 2.93-.317 4.304-.954l13.966-6.55c4.946-2.333 7.217-9.65 5.216-16.794l-1.129-3.989-1.084-3.844c-11.11 5.27-22.475 9.244-33.18 11.557-1.07.232-1.967.89-2.479 1.817-.51.927-.59 2.044-.22 3.084l1.764 5.04z"/>
            <path
                d="M140.094 143.121l.976 3.628.536 1.993c1.51 5.555 5.048 9.228 9.009 9.382 1.468.067 2.893-.363 4.252-1.218l11.38-7.326c4.093-2.632 6.123-9.961 4.677-16.812l-1.67-7.875c-.152-.716-.65-1.31-1.308-1.553a1.78 1.78 0 00-1.868.378c-7.081 6.788-15.942 13.422-25.984 19.403zM91.816 162.728c-1.072.232-1.968.89-2.478 1.817-.512.927-.592 2.044-.221 3.084l1.763 5.04c2.258 6.38 7.428 10.615 12.841 10.633a10.06 10.06 0 004.304-.954l13.967-6.55c4.946-2.333 7.217-9.65 5.215-16.794l-1.129-3.988-1.083-3.845c-11.11 5.27-22.475 9.244-33.18 11.557z"/>
            <path
                d="M156.266 156.006l-1.4.9c-1.359.855-2.783 1.285-4.251 1.219-3.96-.154-7.499-3.828-9.009-9.383l-.536-1.993-.22-.816c5.3 3.246 10.48 6.561 15.416 10.073zM109.008 181.886l-.983.461c-1.373.638-2.8.956-4.305.954-5.412-.017-10.584-4.253-12.841-10.633l-.29-.83a8016.928 8016.928 0 0118.42 10.048z"
                fill="#7d6b6f"/>
        </g>
        <path
            d="M133.133 173.164c3.514.134 8.767-1.928 11.244-4.414 2.478-2.487-5.489-2.673-6.127-2.495-.636.179-8.63 6.774-5.117 6.909z"
            fill="#d947af"/>
    </g>
    <path
        d="M123.739 211.76c1.096 3.31 4.409 13.06 9.739 10.234 4.123-2.183 6.872-8.884 9.518-12.661.393-.561 5.067-4.475 4.883-4.518 4.065.93 20.379 6.12 20.9-1.816.27-4.1-1.313-8.527-3.132-12.177-.54-1.096-1.62-3.886-3.06-5.109-.054-.252-.18-.484-.432-.611-3.781-1.98-14.772 10.1-18.319 11.38-6.066 2.193-21.52 1.356-22.06 4.718-.541 3.49.845 7.248 1.963 10.56z"
        fill="#464142"/>
    <path
        d="M165.351 232.187l.008 10.667h-1.137c-6.59 0-11.927 5.28-11.923 11.792l.004 4.494c.004 6.513 5.35 11.792 11.939 11.792h1.164c.305 6.253 5.515 11.233 11.914 11.233h21.021c6.59 0 11.927-5.281 11.922-11.794l-.028-38.184h-44.884zm-6.23 26.953l-.004-4.494c-.002-2.786 2.29-5.053 5.11-5.053h1.137l.01 14.6h-1.137c-2.819 0-5.115-2.267-5.117-5.053z"
        fill="#3f66ed"/>
    <path
        d="M187.792 232.187h-22.44l.007 10.667h-1.137c-6.59 0-11.927 5.28-11.923 11.792l.004 4.494c.004 6.513 5.35 11.792 11.939 11.792h1.164c.305 6.253 5.515 11.233 11.914 11.233h10.509l-.037-49.978zm-22.418 32.007h-1.137c-2.819 0-5.115-2.268-5.117-5.054l-.003-4.494c-.002-2.786 2.29-5.053 5.11-5.053h1.137l.01 14.6z"
        fill="#6783ef"/>
    <path opacity=".498"
          d="M139.675 185.933c-2.784-.091-4.473-.743-6.974-1.726-.553-.217-1.113.526-.778.986 1.738 2.393 6.708 5.809 12.018 2.872 3.638-1.636 6.776-4.956 7.876-8.643.323-1.08-.831-1.254-1.878-.77-4.282 1.98-4.998 7.454-10.264 7.281z"
          fill="#f09"/>
    <path
        d="M220.436 256.207c-.664-1.342-1.374-2.669-2.216-3.942-3.71-5.608-8.446-9.214-13.078-13.62a58.564 58.564 0 01-6.138 4.473c-6.817 4.343-7.69 11.011-5.837 13.532 3.15 4.29 11.616 8.318 20.595 4.667a81.335 81.335 0 006.674-5.11z"
        fill="#ffdbdc"/>
    <path
        d="M177.828 200.404c4.136-.122 8.83.798 13.698 3.07 15.557 7.256 21.261 18.673 15.049 30.788-.913 1.78-2.035 3.517-3.308 5.207 6.669 2.628 13.066 22.765 17.32 15.6 15.085-25.408 14.904-51.692-11.63-63.963-9.45-4.37-19.228-7.132-28.75-7.894a65.66 65.66 0 01-2.379 17.192z"
        fill="#efeeee"/>
</svg>
